<svg width="92" height="20" viewBox="0 0 92 20" fill="none" xmlns="http://www.w3.org/2000/svg">
<path d="M7.49234 11.8821C9.47345 11.9803 9.65455 12.0785 9.57899 12.4713C9.50342 12.8641 9.08452 12.9623 7.28452 12.9623C5.68452 12.9623 5.30342 12.8641 5.36009 12.5695L5.41677 12.2749H2.41677L2.24674 13.1587C1.90667 14.9263 2.91775 15.9083 6.71775 15.9083C10.3178 15.9083 12.1445 14.7299 12.5223 12.7659C12.919 10.7037 11.8702 9.91812 7.90797 9.72172C5.92686 9.62352 5.74576 9.52532 5.82133 9.13252C5.8969 8.73973 6.31579 8.64153 8.11579 8.64153C9.71579 8.64153 10.0969 8.73973 10.0402 9.03432L9.98354 9.32892H12.9835L13.1536 8.44513C13.4936 6.67754 12.4826 5.69555 8.68256 5.69555C5.08256 5.69555 3.25585 6.87394 2.878 8.83792C2.48126 10.9001 3.53012 11.6857 7.49234 11.8821ZM20.108 8.64153C21.308 8.64153 21.9946 9.23072 21.7301 10.6055L21.6546 10.9983C21.3901 12.3731 20.4767 12.9623 19.2767 12.9623C17.6767 12.9623 17.3901 12.3731 17.6546 10.9983L17.7301 10.6055C17.9946 9.23072 18.508 8.64153 20.108 8.64153ZM19.9099 15.9083C22.3099 15.9083 23.9744 14.5335 24.5412 11.5875L24.8435 10.0163C25.4103 7.07034 24.2747 5.69555 21.8747 5.69555C19.9747 5.69555 18.9425 6.38295 18.3347 7.46314L18.437 5.89195H15.637L12.992 19.6398H15.992L17.05 14.1407C17.2422 15.2209 18.0099 15.9083 19.9099 15.9083ZM30.5021 15.9083C34.2021 15.9083 35.9233 14.2389 36.4712 11.3911L36.6979 10.2127C37.2458 7.36494 36.1669 5.69555 32.4669 5.69555C28.7669 5.69555 27.0458 7.36494 26.4979 10.2127L26.2712 11.3911C25.7233 14.2389 26.8021 15.9083 30.5021 15.9083ZM31.0689 12.9623C29.3689 12.9623 29.0445 12.5695 29.3467 10.9983L29.4223 10.6055C29.7246 9.03432 30.2002 8.64153 31.9002 8.64153C33.6002 8.64153 33.9246 9.03432 33.6223 10.6055L33.5467 10.9983C33.2445 12.5695 32.7689 12.9623 31.0689 12.9623ZM37.3321 15.7119H40.3321L41.3145 10.6055C41.5979 9.13252 42.0546 8.83792 43.6546 8.83792H45.6546L46.2213 5.89195H44.8213C43.1213 5.89195 42.4269 6.38295 41.9191 7.46314L42.0213 5.89195H39.2213L37.3321 15.7119ZM52.5067 12.7659H50.3067C49.7067 12.7659 49.3445 12.5695 49.4956 11.7839L50.0624 8.83792H53.2624L53.8292 5.89195H50.6292L51.007 3.92797H48.607L47.5951 6.06871L46.3067 12.7659C45.9288 14.7299 46.7399 15.7119 48.7399 15.7119H51.9399L52.5067 12.7659Z" fill="#F01B0D"/>
<path d="M53.5477 15.7119H56.5477L57.5301 10.6055C57.7757 9.32892 58.408 8.64153 59.908 8.64153C61.308 8.64153 61.7946 9.23072 61.5301 10.6055L60.5477 15.7119H63.5477L64.6435 10.0163C65.248 6.87394 64.2747 5.69555 61.6747 5.69555C59.7747 5.69555 58.5425 6.38295 58.1347 7.46314L59.1927 1.96398H56.1927L53.5477 15.7119ZM72.6422 14.1407L72.5399 15.7119H75.3399L77.2291 5.89195H74.2291L73.2467 10.9983C73.0011 12.2749 72.3689 12.9623 70.8689 12.9623C69.4689 12.9623 68.9823 12.3731 69.2467 10.9983L70.2291 5.89195H67.2291L66.1334 11.5875C65.5288 14.7299 66.5021 15.9083 69.1021 15.9083C71.0021 15.9083 72.2344 15.2209 72.6422 14.1407ZM83.7923 8.64153C84.9923 8.64153 85.679 9.23072 85.4145 10.6055L85.3389 10.9983C85.0744 12.3731 84.1611 12.9623 82.9611 12.9623C81.3611 12.9623 81.0744 12.3731 81.3389 10.9983L81.4145 10.6055C81.679 9.23072 82.1923 8.64153 83.7923 8.64153ZM77.4321 15.7119H80.2321L80.7344 14.1407C80.9266 15.2209 81.6943 15.9083 83.5943 15.9083C85.9943 15.9083 87.6588 14.5335 88.2256 11.5875L88.5279 10.0163C89.0946 7.07034 87.9591 5.69555 85.5591 5.69555C83.6591 5.69555 82.6269 6.38295 82.0191 7.46314L83.077 1.96398H80.077L77.4321 15.7119Z" fill="white"/>
</svg>
